<?xml version="1.0" encoding="UTF-8"?>
<svg version="1.1" viewBox="0 0 707.07 119.73" xmlns="http://www.w3.org/2000/svg" xmlns:cc="http://creativecommons.org/ns#" xmlns:dc="http://purl.org/dc/elements/1.1/" xmlns:rdf="http://www.w3.org/1999/02/22-rdf-syntax-ns#">
 <metadata>
  <rdf:RDF>
   <cc:Work rdf:about="">
    <dc:format>image/svg+xml</dc:format>
    <dc:type rdf:resource="http://purl.org/dc/dcmitype/StillImage"/>
    <dc:title/>
   </cc:Work>
  </rdf:RDF>
 </metadata>
 <defs>
  <style>.cls-1{fill:#00a99d;}</style>
 </defs>
 <g data-name="图层 2">
  <g data-name="图层 1">
   <path class="cls-1" d="m0.53 1.33a252 252 0 0 0 25.34 1.34 247.28 247.28 0 0 0 24.8-1.34 6.52 6.52 0 0 1 0.53 3.2 8.38 8.38 0 0 1-0.53 3.47 24.11 24.11 0 0 0-8 1.07c-2 0.71-3 1.33-3.2 1.86a18.16 18.16 0 0 0-1.47 6.94q-0.14 4-0.13 9.6v31.2q13.32-10.67 17.86-15.47l7.74-7.47a229.71 229.71 0 0 0 15.73-18.13 9.8 9.8 0 0 0 1.6-6q0-3.87-9.87-3.87a7.35 7.35 0 0 1-0.26-6.4l22.93 1.34a207.5 207.5 0 0 0 21.87-1.34 6.7 6.7 0 0 1 0.4 3.2 4.6 4.6 0 0 1-0.94 2.94 27.68 27.68 0 0 0-11.46 2.66q-5.88 2.67-8.27 5.07l-33.07 34.13c-0.89 1.07-1.06 2.05-0.53 2.94l31.73 42.66q8.27 10.68 18.67 14.67 6.41 2.4 10.4 2.4a7.83 7.83 0 0 1 0.4 3.6 11.07 11.07 0 0 1-0.4 3.07q-7.47 0.52-20.27 0.53t-19.6-4.27a34.38 34.38 0 0 1-10-8.8l-30.93-41.33a2.57 2.57 0 0 0-1.87-0.8 2.3 2.3 0 0 0-1.86 1.07v27.2q0 5.87 0.13 9.86a16.25 16.25 0 0 0 0.93 5.74 4.68 4.68 0 0 0 2.27 2.4 32.67 32.67 0 0 0 3.07 1.2 36.25 36.25 0 0 0 6.4 0.53 8.38 8.38 0 0 1 0.53 3.47 6.52 6.52 0 0 1-0.53 3.2 262.48 262.48 0 0 0-50.14 0 6.4 6.4 0 0 1-0.53-3.2 8.22 8.22 0 0 1 0.53-3.47c3.74 0 6.49-0.4 8.27-1.2a8.53 8.53 0 0 0 3.2-2q1.34-3.19 1.33-16.53v-64.8q0-12.81-1.33-16.54-1.87-2.93-11.47-2.93a8.22 8.22 0 0 1-0.53-3.47 6.4 6.4 0 0 1 0.53-3.2z"/>
   <path class="cls-1" d="m154.93 117.33q-10.94 0-24.26 1.34a6.37 6.37 0 0 1-0.54-3.2 8.19 8.19 0 0 1 0.54-3.47q5.6 0 8.26-1.2a8.53 8.53 0 0 0 3.2-2q1.34-3.19 1.34-16.53v-22.94a56 56 0 0 0-0.54-6.4 22.34 22.34 0 0 0-1.06-5.33q-1.87-3.47-11.2-3.47c-0.36-0.17-0.5-1.11-0.4-2.8s0.3-2.53 0.66-2.53a86.71 86.71 0 0 0 19.74-3.87 124.65 124.65 0 0 0 14.66-5.46 2.84 2.84 0 0 1 1.87 1.2c0.71 0.8 1 1.38 0.93 1.73a14.32 14.32 0 0 0-0.26 2 26.82 26.82 0 0 1-0.67 3.6c-0.89 3.56-1.07 5.33-0.53 5.33a0.76 0.76 0 0 0 0.53-0.26 2.9 2.9 0 0 1 0.8-0.54 37.64 37.64 0 0 1 9.07-7.46q9.33-5.61 16.13-5.6a23.81 23.81 0 0 1 11.47 2.53 18 18 0 0 1 7.33 7.6q4.53 9.07 4.53 31.2v11.47q0 13.33 0.8 15.33a4.66 4.66 0 0 0 2.27 2.67 25 25 0 0 0 3.33 1.2 38 38 0 0 0 6.14 0.53 5.38 5.38 0 0 1 0.66 3.47 7.3 7.3 0 0 1-0.66 3.2 227 227 0 0 0-24-1.34q-8.81 0-22.14 1.34a6.4 6.4 0 0 1-0.53-3.2 8.22 8.22 0 0 1 0.53-3.47 30.24 30.24 0 0 0 5.34-0.67c2.3-0.44 3.73-1.46 4.26-3.06q1.07-2.94 1.07-16v-13.87q0-24.8-11.73-24.8a15.89 15.89 0 0 0-8.8 2.4q-6.67 4.8-6.67 7.47v28.8q0 13.33 0.8 15.33a4.79 4.79 0 0 0 2.13 2.67 23.66 23.66 0 0 0 2.94 1.2 28.85 28.85 0 0 0 5.6 0.53 8.38 8.38 0 0 1 0.53 3.47 6.52 6.52 0 0 1-0.53 3.2q-13.35-1.33-22.94-1.34z"/>
   <path class="cls-1" d="m271.73 39.2a46.08 46.08 0 0 1 16.67 2.93 39.86 39.86 0 0 1 13.2 8.27q11.46 11.2 11.46 28 0 16.55-12 28.8-11.46 12-29.06 12-18.4 0-29.87-11.47a38.08 38.08 0 0 1-11.46-28q0-16.26 11.73-28.53 11.73-12 29.33-12zm-2.13 7.2q-12 0-13.34 19.73-0.52 5.34-0.53 10.67a78 78 0 0 0 0.94 11.6 40 40 0 0 0 3.33 11.33q5.06 12 13.6 12 12.52 0 14.13-19.46c0.18-3.38 0.27-6.84 0.27-10.4a72 72 0 0 0-1.07-11.74 43.33 43.33 0 0 0-3.47-11.46q-5.06-12.27-13.86-12.27z"/>
   <path class="cls-1" d="m312.8 40q6.93 1.06 23.2 1.07t22.66-1.07c0.53 0.36 0.8 1.38 0.8 3.07s-0.27 2.8-0.8 3.33a17.1 17.1 0 0 0-4.8 1.07c-3.73 1.06-5.6 2.31-5.6 3.73v1.07a2.87 2.87 0 0 0 0.54 1.6l17.06 33.6q2.94-7.2 5.33-12.8 6.13-14.4 6.14-15.74a10.29 10.29 0 0 0-1.6-5.86 11.48 11.48 0 0 0-6-5.2 20 20 0 0 0-4.93-1.47 4.14 4.14 0 0 1-0.94-3.33 6.74 6.74 0 0 1 0.67-3.07q10.67 1.06 25.07 1.07t20.8-1.07c0.53 0.36 0.79 1.38 0.79 3.07s-0.26 2.8-0.79 3.33a17 17 0 0 0-4.8 1.07c-3.74 1.06-5.6 2.31-5.6 3.73v1.07a2.85 2.85 0 0 0 0.53 1.6l14.66 32.26 12-28.53q1.88-4.8 1.87-6.4a3.12 3.12 0 0 0-1.73-2.67 13.75 13.75 0 0 0-4.14-1.6 48.48 48.48 0 0 0-6.66-0.53c-0.36-0.35-0.53-1.38-0.53-3.07a6.77 6.77 0 0 1 0.53-3.33 131.59 131.59 0 0 0 17.33 1.07 144.36 144.36 0 0 0 17.87-1.07c0.35 0.36 0.53 1.33 0.53 2.93a8.38 8.38 0 0 1-0.53 3.47q-5.87 0-8.54 1.87a9.52 9.52 0 0 0-3.46 3.73l-25.87 58.13q-2.4 5.34-4.93 7.47t-3.6 2.13a3.67 3.67 0 0 1-2.4-1.33q-4-10.12-7.47-18.8t-6.66-16.8q-3.21-8.13-5.34-13.47-5.59 14.4-17.6 40.8-2.13 5.34-4.8 7.47c-1.78 1.42-3 2.13-3.73 2.13a3.67 3.67 0 0 1-2.4-1.33l-30.93-65.33a10.63 10.63 0 0 0-6.14-5.34 23.55 23.55 0 0 0-5.06-1.33 5 5 0 0 1-0.67-3.33 6.74 6.74 0 0 1 0.67-3.07z"/>
   <path d="m494.13 112.27a18.4 18.4 0 0 0 11.46-3.87q5.07-3.87 5.07-13.2 0-8-9.87-16.8a61.26 61.26 0 0 0-8.53-6.67q-4.54-2.92-8.53-5.73t-8.67-6a50.3 50.3 0 0 1-8.4-7.2 30.82 30.82 0 0 1-7.73-21.07q0-13.07 12-22.66a39.52 39.52 0 0 1 25.6-9.07 63.12 63.12 0 0 1 14.53 1.6q6.8 1.61 14.8 3.2 0.79 6.93 1.2 14.13t0.93 15.2a2.89 2.89 0 0 1-1.86 1.07q-5.07 0-5.34-1.33a37.79 37.79 0 0 0-7.2-16.8q-6.93-9.6-16.26-9.6a17.93 17.93 0 0 0-10.14 3.2q-4.8 3.2-4.8 12 0 11.46 25.34 28.26 4.26 2.94 8.93 6a46.16 46.16 0 0 1 8.4 7.07 33.69 33.69 0 0 1 8.53 23.2q0 14.14-12 23.47a41 41 0 0 1-26.13 9.06 131.92 131.92 0 0 1-33.6-4.8q-2.67-14.13-3.33-21.06c-0.45-4.62-0.76-7.56-0.94-8.8a5.53 5.53 0 0 1 2.54-1.6 9.2 9.2 0 0 1 3.33-0.8 1.48 1.48 0 0 1 1.6 1.33q1.33 8.53 9.07 17.87 9.06 10.39 20 10.4z"/>
   <path d="m604 73.07q-16 1.34-42.13 2.13 0 16.27 9.07 24a23.49 23.49 0 0 0 15.06 5.6q8.13 0 12.67-2.93a45.86 45.86 0 0 0 7.46-5.87 2.68 2.68 0 0 1 2.13 2.93 7.15 7.15 0 0 1-0.93 3.87 33.7 33.7 0 0 1-3.6 4.27 39.1 39.1 0 0 1-6.67 5.46q-10.14 6.94-19.47 6.94a45.06 45.06 0 0 1-16-2.54 34.71 34.71 0 0 1-11.73-7.33q-10.93-10.39-10.93-26.93a42.77 42.77 0 0 1 11.73-29.87q12.52-13.61 27.2-13.6 15.74 0 24 9.33a24.71 24.71 0 0 1 6.93 17.34 9.31 9.31 0 0 1-1.33 5.06 4 4 0 0 1-3.46 2.14zm-42.13-4.8c0.35 0 1.55 0 3.6-0.14s4.31-0.22 6.8-0.4a122.23 122.23 0 0 0 12.27-0.8c1.6-0.17 2.4-1.2 2.4-3.06a36.1 36.1 0 0 0-0.54-6 17.58 17.58 0 0 0-1.86-5.6q-2.94-5.87-7.6-5.87a10.26 10.26 0 0 0-7.34 2.53 23.56 23.56 0 0 0-4.53 6 31.87 31.87 0 0 0-3.21 13.34z"/>
   <path d="m612.52 40q10.66 1.06 25.34 1.07t21.06-1.07c0.54 0.36 0.8 1.38 0.8 3.07s-0.26 2.8-0.8 3.33q-4.26 0-6.26 1.47c-1.34 1-2 1.73-2 2.26a4.34 4.34 0 0 0 1.6 2.67l11.46 14.4c1.25-1.42 2.67-3 4.27-4.67s3.11-3.33 4.53-4.93q4.54-5.06 4.54-6.53a3 3 0 0 0-1.74-2.54 14 14 0 0 0-3.86-1.6 44.63 44.63 0 0 0-6.67-0.53c-0.53-0.35-0.8-1.38-0.8-3.07a6.89 6.89 0 0 1 0.53-3.33 111.18 111.18 0 0 0 14.54 1.07q6.53 0 9.86-0.14t6.4-0.26c2-0.09 3.87-0.22 5.47-0.4s2.76-0.27 3.47-0.27c0.35 0.36 0.53 1.33 0.53 2.93a8.38 8.38 0 0 1-0.53 3.47q-9.07 0-14.67 5.6-4.53 5.07-9.07 10.13l-11.2 12.54 25.07 31.46a11.73 11.73 0 0 0 6.67 4.8 27.05 27.05 0 0 0 5.06 1.07 5.1 5.1 0 0 1 0.94 3.6 6.77 6.77 0 0 1-0.67 3.07 94.89 94.89 0 0 0-12.27-0.94q-6.93-0.12-16.4-0.26a111 111 0 0 0-18.26 1.2 6.79 6.79 0 0 1-0.54-3.34 6.74 6.74 0 0 1 0.54-3.33 25.72 25.72 0 0 0 5.06-0.8q3.47-0.8 3.47-2.93a2 2 0 0 0-0.53-1.2c-0.36-0.44-0.71-0.94-1.07-1.47l-12.53-15.2c-1.25 1.42-2.71 3-4.4 4.67s-3.25 3.33-4.67 4.93q-5.6 5.86-5.6 7.33a3 3 0 0 0 1.73 2.54 13.9 13.9 0 0 0 3.87 1.6 46.2 46.2 0 0 0 6.93 0.53 6.35 6.35 0 0 1 0.54 3.2 8.22 8.22 0 0 1-0.54 3.47 112.57 112.57 0 0 0-15.33-1.34q-6 0-9.47 0.14t-6.66 0.4c-2.14 0.17-4 0.31-5.74 0.4a20.27 20.27 0 0 0-3.6 0.4 6.52 6.52 0 0 1-0.53-3.2 8.38 8.38 0 0 1 0.53-3.47 26 26 0 0 0 7.07-1.47 20.49 20.49 0 0 0 7.87-4.4q6.39-6.12 11.06-11.33t11.08-11.87l-23.21-30.93a12.22 12.22 0 0 0-6.8-4.53 30.27 30.27 0 0 0-5.2-1.07 4.17 4.17 0 0 1-0.93-3.33 6.9 6.9 0 0 1 0.66-3.07z"/>
  </g>
 </g>
</svg>
