<svg width="476" height="406" xmlns="http://www.w3.org/2000/svg" xmlns:xlink="http://www.w3.org/1999/xlink" overflow="hidden"><defs><clipPath id="clip0"><rect x="402" y="157" width="476" height="406"/></clipPath></defs><g clip-path="url(#clip0)" transform="translate(-402 -157)"><g><path d="M542.5 212.5 542.5 499.5M577.5 212.5 577.5 499.5M612.5 212.5 612.5 499.5M646.5 212.5 646.5 499.5M681.5 212.5 681.5 499.5M716.5 212.5 716.5 499.5M750.5 212.5 750.5 499.5M785.5 212.5 785.5 499.5M820.5 212.5 820.5 499.5M855.5 212.5 855.5 499.5" stroke="#D9D9D9" stroke-linejoin="round" stroke-miterlimit="10" fill="none"/></g><g><path d="M838 487 699 487 699 471 838 471ZM803 446 647 446 647 430 803 430ZM838 405 629 405 629 389 838 389ZM820 364 612 364 612 348 820 348ZM768 324 595 324 595 307 768 307ZM751 283 543 283 543 266 751 266ZM716 242 543 242 543 225 716 225Z" fill="#8FAADC"/></g><g><path d="M0 0 0.000104987 287" stroke="#D9D9D9" stroke-linejoin="round" stroke-miterlimit="10" fill="none" fill-rule="evenodd" transform="matrix(1 0 0 -1 507.5 499.5)"/></g><g><text fill="#595959" font-family="LXGW Neo XiHei,LXGW Neo XiHei_MSFontService,sans-serif" font-weight="400" font-size="12" transform="translate(504.151 518)">7</text></g><g><text fill="#595959" font-family="LXGW Neo XiHei,LXGW Neo XiHei_MSFontService,sans-serif" font-weight="400" font-size="12" transform="translate(538.872 518)">8</text></g><g><text fill="#595959" font-family="LXGW Neo XiHei,LXGW Neo XiHei_MSFontService,sans-serif" font-weight="400" font-size="12" transform="translate(573.594 518)">9</text></g><g><text fill="#595959" font-family="LXGW Neo XiHei,LXGW Neo XiHei_MSFontService,sans-serif" font-weight="400" font-size="12" transform="translate(604.536 518)">10</text></g><g><text fill="#595959" font-family="LXGW Neo XiHei,LXGW Neo XiHei_MSFontService,sans-serif" font-weight="400" font-size="12" transform="translate(639.258 518)">11</text></g><g><text fill="#595959" font-family="LXGW Neo XiHei,LXGW Neo XiHei_MSFontService,sans-serif" font-weight="400" font-size="12" transform="translate(673.979 518)">12</text></g><g><text fill="#595959" font-family="LXGW Neo XiHei,LXGW Neo XiHei_MSFontService,sans-serif" font-weight="400" font-size="12" transform="translate(708.701 518)">13</text></g><g><text fill="#595959" font-family="LXGW Neo XiHei,LXGW Neo XiHei_MSFontService,sans-serif" font-weight="400" font-size="12" transform="translate(743.423 518)">14</text></g><g><text fill="#595959" font-family="LXGW Neo XiHei,LXGW Neo XiHei_MSFontService,sans-serif" font-weight="400" font-size="12" transform="translate(778.145 518)">15</text></g><g><text fill="#595959" font-family="LXGW Neo XiHei,LXGW Neo XiHei_MSFontService,sans-serif" font-weight="400" font-size="12" transform="translate(812.867 518)">16</text></g><g><text fill="#595959" font-family="LXGW Neo XiHei,LXGW Neo XiHei_MSFontService,sans-serif" font-weight="400" font-size="12" transform="translate(847.588 518)">17</text></g><g><g><text fill="#595959" font-family="LXGW Neo XiHei,LXGW Neo XiHei_MSFontService,sans-serif" font-weight="400" font-size="14" transform="translate(411.292 483)">成人乳房大小</text></g></g><g><g><text fill="#595959" font-family="LXGW Neo XiHei,LXGW Neo XiHei_MSFontService,sans-serif" font-weight="400" font-size="14" transform="translate(439.292 442)">体型改变</text></g></g><g><g><text fill="#595959" font-family="LXGW Neo XiHei,LXGW Neo XiHei_MSFontService,sans-serif" font-weight="400" font-size="14" transform="translate(439.292 401)">腋毛发育</text></g></g><g><g><text fill="#595959" font-family="LXGW Neo XiHei,LXGW Neo XiHei_MSFontService,sans-serif" font-weight="400" font-size="14" transform="translate(439.292 360)">月经初潮</text></g></g><g><g><text fill="#595959" font-family="LXGW Neo XiHei,LXGW Neo XiHei_MSFontService,sans-serif" font-weight="400" font-size="14" transform="translate(439.292 319)">生长突增</text></g></g><g><g><text fill="#595959" font-family="LXGW Neo XiHei,LXGW Neo XiHei_MSFontService,sans-serif" font-weight="400" font-size="14" transform="translate(439.292 278)">阴毛发育</text></g></g><g><g><text fill="#595959" font-family="LXGW Neo XiHei,LXGW Neo XiHei_MSFontService,sans-serif" font-weight="400" font-size="14" transform="translate(439.292 237)">乳房发育</text></g></g><g><text fill="#595959" font-family="LXGW Neo XiHei,LXGW Neo XiHei_MSFontService,sans-serif" font-weight="400" font-size="13" transform="translate(810.619 543)">年龄</text></g><g><text fill="#595959" font-family="LXGW Neo XiHei,LXGW Neo XiHei_MSFontService,sans-serif" font-weight="400" font-size="13" transform="translate(840.886 543)">/</text></g><g><text fill="#595959" font-family="LXGW Neo XiHei,LXGW Neo XiHei_MSFontService,sans-serif" font-weight="400" font-size="13" transform="translate(851.153 543)">岁</text></g><g><text fill="#595959" font-family="LXGW Neo XiHei,LXGW Neo XiHei_MSFontService,sans-serif" font-weight="400" font-size="19" transform="translate(546.667 187)">女生青春期变化与年龄</text></g><g><g><text fill="#A6A6A6" font-family="LXGW Neo XiHei,LXGW Neo XiHei_MSFontService,sans-serif" font-weight="400" font-size="13" transform="translate(526.541 551)">数据来源：</text></g></g><g><g><text fill="#A6A6A6" font-family="LXGW Neo XiHei,LXGW Neo XiHei_MSFontService,sans-serif" font-weight="400" font-size="13" transform="translate(593.207 551)">《</text></g></g><g><g><text fill="#A6A6A6" font-family="LXGW Neo XiHei,LXGW Neo XiHei_MSFontService,sans-serif" font-weight="400" font-size="13" transform="translate(606.541 551)">默沙东诊疗手册大众版</text></g></g><g><g><text fill="#A6A6A6" font-family="LXGW Neo XiHei,LXGW Neo XiHei_MSFontService,sans-serif" font-weight="400" font-size="13" transform="translate(739.874 551)">》</text></g></g></g></svg>