<svg width="475" height="408" xmlns="http://www.w3.org/2000/svg" xmlns:xlink="http://www.w3.org/1999/xlink" overflow="hidden"><defs><clipPath id="clip0"><rect x="403" y="156" width="475" height="408"/></clipPath></defs><g clip-path="url(#clip0)" transform="translate(-403 -156)"><g><path d="M565.5 209.5 565.5 506.5M601.5 209.5 601.5 506.5M638.5 209.5 638.5 506.5M674.5 209.5 674.5 506.5M711.5 209.5 711.5 506.5M747.5 209.5 747.5 506.5M783.5 209.5 783.5 506.5M820.5 209.5 820.5 506.5M856.5 209.5 856.5 506.5" stroke="#D9D9D9" stroke-linejoin="round" stroke-miterlimit="10" fill="none"/></g><g><path d="M820 494 638 494 638 477 820 477ZM784 451 602 451 602 434 784 434ZM784 409 602 409 602 392 784 392ZM675 366 566 366 566 349 675 349ZM711 324 566 324 566 307 711 307ZM820 281 547 281 547 264 820 264ZM784 239 547 239 547 222 784 222Z" fill="#8FAADC"/></g><g><path d="M0 0 0.000104987 297" stroke="#D9D9D9" stroke-linejoin="round" stroke-miterlimit="10" fill="none" fill-rule="evenodd" transform="matrix(1 0 0 -1 529.5 506.5)"/></g><g><text fill="#595959" font-family="LXGW Neo XiHei,LXGW Neo XiHei_MSFontService,sans-serif" font-weight="400" font-size="12" transform="translate(521.7 525)">10</text></g><g><text fill="#595959" font-family="LXGW Neo XiHei,LXGW Neo XiHei_MSFontService,sans-serif" font-weight="400" font-size="12" transform="translate(558.049 525)">11</text></g><g><text fill="#595959" font-family="LXGW Neo XiHei,LXGW Neo XiHei_MSFontService,sans-serif" font-weight="400" font-size="12" transform="translate(594.397 525)">12</text></g><g><text fill="#595959" font-family="LXGW Neo XiHei,LXGW Neo XiHei_MSFontService,sans-serif" font-weight="400" font-size="12" transform="translate(630.746 525)">13</text></g><g><text fill="#595959" font-family="LXGW Neo XiHei,LXGW Neo XiHei_MSFontService,sans-serif" font-weight="400" font-size="12" transform="translate(667.095 525)">14</text></g><g><text fill="#595959" font-family="LXGW Neo XiHei,LXGW Neo XiHei_MSFontService,sans-serif" font-weight="400" font-size="12" transform="translate(703.443 525)">15</text></g><g><text fill="#595959" font-family="LXGW Neo XiHei,LXGW Neo XiHei_MSFontService,sans-serif" font-weight="400" font-size="12" transform="translate(739.792 525)">16</text></g><g><text fill="#595959" font-family="LXGW Neo XiHei,LXGW Neo XiHei_MSFontService,sans-serif" font-weight="400" font-size="12" transform="translate(776.141 525)">17</text></g><g><text fill="#595959" font-family="LXGW Neo XiHei,LXGW Neo XiHei_MSFontService,sans-serif" font-weight="400" font-size="12" transform="translate(812.49 525)">18</text></g><g><text fill="#595959" font-family="LXGW Neo XiHei,LXGW Neo XiHei_MSFontService,sans-serif" font-weight="400" font-size="12" transform="translate(848.839 525)">19</text></g><g><text fill="#595959" font-family="LXGW Neo XiHei,LXGW Neo XiHei_MSFontService,sans-serif" font-weight="400" font-size="14" transform="translate(418.621 489)">面部毛发和腋毛</text></g><g><text fill="#595959" font-family="LXGW Neo XiHei,LXGW Neo XiHei_MSFontService,sans-serif" font-weight="400" font-size="14" transform="translate(460.621 446)">体型变化</text></g><g><text fill="#595959" font-family="LXGW Neo XiHei,LXGW Neo XiHei_MSFontService,sans-serif" font-weight="400" font-size="14" transform="translate(460.621 404)">生长高峰</text></g><g><text fill="#595959" font-family="LXGW Neo XiHei,LXGW Neo XiHei_MSFontService,sans-serif" font-weight="400" font-size="14" transform="translate(460.621 361)">阴毛发育</text></g><g><text fill="#595959" font-family="LXGW Neo XiHei,LXGW Neo XiHei_MSFontService,sans-serif" font-weight="400" font-size="14" transform="translate(460.621 319)">阴茎发育</text></g><g><text fill="#595959" font-family="LXGW Neo XiHei,LXGW Neo XiHei_MSFontService,sans-serif" font-weight="400" font-size="14" transform="translate(460.621 276)">嗓音变化</text></g><g><text fill="#595959" font-family="LXGW Neo XiHei,LXGW Neo XiHei_MSFontService,sans-serif" font-weight="400" font-size="14" transform="translate(418.621 234)">阴囊和睾丸发育</text></g><g><text fill="#595959" font-family="LXGW Neo XiHei,LXGW Neo XiHei_MSFontService,sans-serif" font-weight="400" font-size="13" transform="translate(811.319 549)">年龄</text></g><g><text fill="#595959" font-family="LXGW Neo XiHei,LXGW Neo XiHei_MSFontService,sans-serif" font-weight="400" font-size="13" transform="translate(841.585 549)">/</text></g><g><text fill="#595959" font-family="LXGW Neo XiHei,LXGW Neo XiHei_MSFontService,sans-serif" font-weight="400" font-size="13" transform="translate(851.852 549)">岁</text></g><g><text fill="#595959" font-family="LXGW Neo XiHei,LXGW Neo XiHei_MSFontService,sans-serif" font-weight="400" font-size="19" transform="translate(546.667 187)">男生青春期变化与年龄</text></g><g><text fill="#A6A6A6" font-family="LXGW Neo XiHei,LXGW Neo XiHei_MSFontService,sans-serif" font-weight="400" font-size="12" transform="translate(538 551)">数据来源：</text></g><g><text fill="#A6A6A6" font-family="LXGW Neo XiHei,LXGW Neo XiHei_MSFontService,sans-serif" font-weight="400" font-size="12" transform="translate(598 551)">《</text></g><g><text fill="#A6A6A6" font-family="LXGW Neo XiHei,LXGW Neo XiHei_MSFontService,sans-serif" font-weight="400" font-size="12" transform="translate(610 551)">默沙东诊疗手册大众版</text></g><g><text fill="#A6A6A6" font-family="LXGW Neo XiHei,LXGW Neo XiHei_MSFontService,sans-serif" font-weight="400" font-size="12" transform="translate(730 551)">》</text></g></g></svg>