<svg width="481" height="338" xmlns="http://www.w3.org/2000/svg" xmlns:xlink="http://www.w3.org/1999/xlink" overflow="hidden"><defs><clipPath id="clip0"><rect x="400" y="191" width="481" height="338"/></clipPath></defs><g clip-path="url(#clip0)" transform="translate(-400 -191)"><g><path d="M481.5 462.5 865.5 462.5M481.5 421.5 865.5 421.5M481.5 400.5 865.5 400.5M481.5 379.5 865.5 379.5M481.5 359.5 865.5 359.5M481.5 338.5 865.5 338.5M481.5 317.5 865.5 317.5M481.5 297.5 865.5 297.5M481.5 276.5 865.5 276.5" stroke="#F2F2F2" stroke-linejoin="round" stroke-miterlimit="10" stroke-opacity="0.568627" fill="none"/></g><g><path d="M0 0 0.000104987 186" stroke="#D9D9D9" stroke-linejoin="round" stroke-miterlimit="10" fill="none" fill-rule="evenodd" transform="matrix(1 0 0 -1 481.5 462.5)"/></g><g><path d="M481.5 442.5 865.5 442.5" stroke="#D9D9D9" stroke-linejoin="round" stroke-miterlimit="10" fill="none" fill-rule="evenodd"/></g><g><path d="M499.5 344.818C511.1 341.383 522.7 339.322 534.3 334.514 545.9 329.706 557.5 315.28 569.1 315.967 580.7 316.654 592.3 340.696 603.9 338.635 615.5 336.575 627.1 307.724 638.7 303.603 650.3 299.481 661.9 316.311 673.5 313.907 685.1 311.502 696.7 277.5 708.3 289.178 719.9 300.855 731.5 375.729 743.1 383.972 754.7 392.214 766.3 332.453 777.9 338.635 789.5 344.818 801.1 406.983 812.7 421.065 823.767 434.5 836.433 422.47 847.5 423.126" stroke="#E2F0D9" stroke-width="3" stroke-linecap="round" stroke-linejoin="round" stroke-miterlimit="10" fill="none"/></g><g><path d="M499.5 355.124C511.1 346.843 522.7 339.252 534.3 330.28 545.9 321.309 557.5 305.091 569.1 301.296 580.7 297.5 592.3 305.436 603.9 307.507 615.5 309.577 627.1 308.887 638.7 313.718 650.3 318.548 661.9 325.795 673.5 336.491 685.1 347.188 696.7 358.92 708.3 377.898 719.9 396.876 731.5 446.219 743.1 450.359 754.7 454.5 766.3 404.467 777.9 402.742 789.5 401.016 801.1 432.762 812.7 440.008 824.3 447.254 835.9 444.148 847.5 446.219" stroke="#FFF2CC" stroke-width="3" stroke-linecap="round" stroke-linejoin="round" stroke-miterlimit="10" fill="none"/></g><g><path d="M499.5 328.455C511.1 323.62 522.7 308.769 534.3 313.949 545.9 319.13 557.5 354.012 569.1 359.538 580.7 365.064 592.3 351.94 603.9 347.105 615.5 342.27 627.1 336.744 638.7 330.527 650.3 324.31 661.9 315.676 673.5 309.805 685.1 303.933 696.7 291.5 708.3 295.299 719.9 299.098 731.5 327.764 743.1 332.599 754.7 337.435 766.3 312.222 777.9 324.31 789.5 336.398 801.1 385.096 812.7 405.128 824.3 425.159 835.9 431.376 847.5 444.5" stroke="#2F5597" stroke-width="3" stroke-linecap="round" stroke-linejoin="round" stroke-miterlimit="10" fill="none"/></g><g><path d="M499.5 373.865C511.1 358.014 522.7 332.514 534.3 326.311 545.9 320.108 557.5 340.095 569.1 336.649 580.7 333.203 592.3 309.77 603.9 305.635 615.5 301.5 627.1 306.324 638.7 311.838 650.3 317.351 661.9 324.243 673.5 338.716 685.1 353.189 696.7 389.716 708.3 398.676 719.9 407.635 731.5 392.473 743.1 392.473 754.7 392.473 766.3 392.128 777.9 398.676 789.5 405.223 801.1 422.453 812.7 431.757 824.3 441.061 835.9 446.919 847.5 454.5" stroke="#C55A11" stroke-width="3" stroke-linecap="round" stroke-linejoin="round" stroke-miterlimit="10" fill="none"/></g><g><text fill="#595959" font-family="LXGW Neo XiHei,LXGW Neo XiHei_MSFontService, Noto Sans SC, sans-serif" font-weight="400" font-size="12" transform="translate(437.481 466)">-1.00</text></g><g><text fill="#595959" font-family="LXGW Neo XiHei,LXGW Neo XiHei_MSFontService, Noto Sans SC, sans-serif" font-weight="400" font-size="12" transform="translate(441.775 445)">0.00</text></g><g><text fill="#595959" font-family="LXGW Neo XiHei,LXGW Neo XiHei_MSFontService, Noto Sans SC, sans-serif" font-weight="400" font-size="12" transform="translate(441.775 425)">1.00</text></g><g><text fill="#595959" font-family="LXGW Neo XiHei,LXGW Neo XiHei_MSFontService, Noto Sans SC, sans-serif" font-weight="400" font-size="12" transform="translate(441.775 404)">2.00</text></g><g><text fill="#595959" font-family="LXGW Neo XiHei,LXGW Neo XiHei_MSFontService, Noto Sans SC, sans-serif" font-weight="400" font-size="12" transform="translate(441.775 383)">3.00</text></g><g><text fill="#595959" font-family="LXGW Neo XiHei,LXGW Neo XiHei_MSFontService, Noto Sans SC, sans-serif" font-weight="400" font-size="12" transform="translate(441.775 363)">4.00</text></g><g><text fill="#595959" font-family="LXGW Neo XiHei,LXGW Neo XiHei_MSFontService, Noto Sans SC, sans-serif" font-weight="400" font-size="12" transform="translate(441.775 342)">5.00</text></g><g><text fill="#595959" font-family="LXGW Neo XiHei,LXGW Neo XiHei_MSFontService, Noto Sans SC, sans-serif" font-weight="400" font-size="12" transform="translate(441.775 321)">6.00</text></g><g><text fill="#595959" font-family="LXGW Neo XiHei,LXGW Neo XiHei_MSFontService, Noto Sans SC, sans-serif" font-weight="400" font-size="12" transform="translate(441.775 300)">7.00</text></g><g><text fill="#595959" font-family="LXGW Neo XiHei,LXGW Neo XiHei_MSFontService, Noto Sans SC, sans-serif" font-weight="400" font-size="12" transform="translate(441.775 280)">8.00</text></g><g><text fill="#595959" font-family="LXGW Neo XiHei,LXGW Neo XiHei_MSFontService, Noto Sans SC, sans-serif" font-weight="400" font-size="12" transform="translate(495.343 460)">7</text></g><g><text fill="#595959" font-family="LXGW Neo XiHei,LXGW Neo XiHei_MSFontService, Noto Sans SC, sans-serif" font-weight="400" font-size="12" transform="translate(530.197 460)">8</text></g><g><text fill="#595959" font-family="LXGW Neo XiHei,LXGW Neo XiHei_MSFontService, Noto Sans SC, sans-serif" font-weight="400" font-size="12" transform="translate(565.051 460)">9</text></g><g><text fill="#595959" font-family="LXGW Neo XiHei,LXGW Neo XiHei_MSFontService, Noto Sans SC, sans-serif" font-weight="400" font-size="12" transform="translate(596.125 460)">10</text></g><g><text fill="#595959" font-family="LXGW Neo XiHei,LXGW Neo XiHei_MSFontService, Noto Sans SC, sans-serif" font-weight="400" font-size="12" transform="translate(630.98 460)">11</text></g><g><text fill="#595959" font-family="LXGW Neo XiHei,LXGW Neo XiHei_MSFontService, Noto Sans SC, sans-serif" font-weight="400" font-size="12" transform="translate(665.834 460)">12</text></g><g><text fill="#595959" font-family="LXGW Neo XiHei,LXGW Neo XiHei_MSFontService, Noto Sans SC, sans-serif" font-weight="400" font-size="12" transform="translate(700.688 460)">13</text></g><g><text fill="#595959" font-family="LXGW Neo XiHei,LXGW Neo XiHei_MSFontService, Noto Sans SC, sans-serif" font-weight="400" font-size="12" transform="translate(735.542 460)">14</text></g><g><text fill="#595959" font-family="LXGW Neo XiHei,LXGW Neo XiHei_MSFontService, Noto Sans SC, sans-serif" font-weight="400" font-size="12" transform="translate(770.396 460)">15</text></g><g><text fill="#595959" font-family="LXGW Neo XiHei,LXGW Neo XiHei_MSFontService, Noto Sans SC, sans-serif" font-weight="400" font-size="12" transform="translate(805.251 460)">16</text></g><g><text fill="#595959" font-family="LXGW Neo XiHei,LXGW Neo XiHei_MSFontService, Noto Sans SC, sans-serif" font-weight="400" font-size="12" transform="translate(840.105 460)">17</text></g><g><text fill="#595959" font-family="LXGW Neo XiHei,LXGW Neo XiHei_MSFontService, Noto Sans SC, sans-serif" font-weight="400" font-size="11" transform="matrix(6.12323e-17 -1 1 6.12323e-17 428.908 418)">平均身高增长</text></g><g><text fill="#595959" font-family="LXGW Neo XiHei,LXGW Neo XiHei_MSFontService, Noto Sans SC, sans-serif" font-weight="400" font-size="11" transform="matrix(6.12323e-17 -1 1 6.12323e-17 428.908 351)">/</text></g><g><text fill="#595959" font-family="LXGW Neo XiHei,LXGW Neo XiHei_MSFontService, Noto Sans SC, sans-serif" font-weight="400" font-size="11" transform="matrix(6.12323e-17 -1 1 6.12323e-17 428.908 343)">厘米</text></g><g><text fill="#595959" font-family="LXGW Neo XiHei,LXGW Neo XiHei_MSFontService, Noto Sans SC, sans-serif" font-weight="400" font-size="11" transform="translate(651.847 477)">年龄</text></g><g><text fill="#595959" font-family="LXGW Neo XiHei,LXGW Neo XiHei_MSFontService, Noto Sans SC, sans-serif" font-weight="400" font-size="11" transform="translate(676.06 477)">/</text></g><g><text fill="#595959" font-family="LXGW Neo XiHei,LXGW Neo XiHei_MSFontService, Noto Sans SC, sans-serif" font-weight="400" font-size="11" transform="translate(684.274 477)">岁</text></g><g><text fill="#595959" font-family="LXGW Neo XiHei,LXGW Neo XiHei_MSFontService, Noto Sans SC, sans-serif" font-weight="400" font-size="19" transform="translate(500 222)">中国大陆城乡青少年身高增长曲线</text></g><g><text fill="#595959" font-family="LXGW Neo XiHei,LXGW Neo XiHei_MSFontService, Noto Sans SC, sans-serif" font-weight="400" font-size="19" transform="translate(560.873 251)">（</text></g><g><text fill="#595959" font-family="LXGW Neo XiHei,LXGW Neo XiHei_MSFontService, Noto Sans SC, sans-serif" font-weight="400" font-size="19" transform="translate(584.58 251)">2015</text></g><g><text fill="#595959" font-family="LXGW Neo XiHei,LXGW Neo XiHei_MSFontService, Noto Sans SC, sans-serif" font-weight="400" font-size="19" transform="translate(636.66 251)">-</text></g><g><text fill="#595959" font-family="LXGW Neo XiHei,LXGW Neo XiHei_MSFontService, Noto Sans SC, sans-serif" font-weight="400" font-size="19" transform="translate(648.38 251)">2017</text></g><g><text fill="#595959" font-family="LXGW Neo XiHei,LXGW Neo XiHei_MSFontService, Noto Sans SC, sans-serif" font-weight="400" font-size="19" transform="translate(700.46 251)">）</text></g><g><path d="M465.5 495.5 491.5 495.5" stroke="#E2F0D9" stroke-width="3" stroke-linecap="round" stroke-linejoin="round" stroke-miterlimit="10" fill="none" fill-rule="evenodd"/></g><g><g><text fill="#595959" font-family="LXGW Neo XiHei,LXGW Neo XiHei_MSFontService, Noto Sans SC, sans-serif" font-weight="400" font-size="12" transform="translate(494.3 499)">城市男性</text></g></g><g><path d="M558.5 495.5 584.5 495.5" stroke="#FFF2CC" stroke-width="3" stroke-linecap="round" stroke-linejoin="round" stroke-miterlimit="10" fill="none" fill-rule="evenodd"/></g><g><g><text fill="#595959" font-family="LXGW Neo XiHei,LXGW Neo XiHei_MSFontService, Noto Sans SC, sans-serif" font-weight="400" font-size="12" transform="translate(587.1 499)">城市女性</text></g></g><g><path d="M651.5 495.5 677.5 495.5" stroke="#2F5597" stroke-width="3" stroke-linecap="round" stroke-linejoin="round" stroke-miterlimit="10" fill="none" fill-rule="evenodd"/></g><g><g><text fill="#595959" font-family="LXGW Neo XiHei,LXGW Neo XiHei_MSFontService, Noto Sans SC, sans-serif" font-weight="400" font-size="12" transform="translate(679.9 499)">农村男性</text></g></g><g><path d="M744.5 495.5 769.5 495.5" stroke="#C55A11" stroke-width="3" stroke-linecap="round" stroke-linejoin="round" stroke-miterlimit="10" fill="none" fill-rule="evenodd"/></g><g><g><text fill="#595959" font-family="LXGW Neo XiHei,LXGW Neo XiHei_MSFontService, Noto Sans SC, sans-serif" font-weight="400" font-size="12" transform="translate(772.7 499)">农村女性</text></g></g><g><g><text fill="#A6A6A6" font-family="LXGW Neo XiHei,LXGW Neo XiHei_MSFontService, Noto Sans SC, sans-serif" font-weight="400" font-size="11" transform="translate(527.507 519)">根据</text></g></g><g><g><text fill="#A6A6A6" font-family="LXGW Neo XiHei,LXGW Neo XiHei_MSFontService, Noto Sans SC, sans-serif" font-weight="400" font-size="11" transform="translate(548.84 519)">《</text></g></g><g><g><text fill="#A6A6A6" font-family="LXGW Neo XiHei,LXGW Neo XiHei_MSFontService, Noto Sans SC, sans-serif" font-weight="400" font-size="11" transform="translate(562.34 519)">2022</text></g></g><g><g><text fill="#A6A6A6" font-family="LXGW Neo XiHei,LXGW Neo XiHei_MSFontService, Noto Sans SC, sans-serif" font-weight="400" font-size="11" transform="translate(591.84 519)">中国卫生健康统计年鉴</text></g></g><g><g><text fill="#A6A6A6" font-family="LXGW Neo XiHei,LXGW Neo XiHei_MSFontService, Noto Sans SC, sans-serif" font-weight="400" font-size="11" transform="translate(698.507 519)">》</text></g></g><g><g><text fill="#A6A6A6" font-family="LXGW Neo XiHei,LXGW Neo XiHei_MSFontService, Noto Sans SC, sans-serif" font-weight="400" font-size="11" transform="translate(709.174 519)">数据制表</text></g></g></g></svg>