<?xml version="1.0" encoding="utf-8"?>
<!-- Generator: Adobe Illustrator 24.3.0, SVG Export Plug-In . SVG Version: 6.00 Build 0)  -->
<svg version="1.1" id="图层_1" xmlns:serif="http://www.serif.com/"
	 xmlns="http://www.w3.org/2000/svg" xmlns:xlink="http://www.w3.org/1999/xlink" x="0px" y="0px" viewBox="0 0 595.3 841.9"
	 style="enable-background:new 0 0 595.3 841.9;" xml:space="preserve">
<style type="text/css">
	
		.st0{fill:none;stroke:#1B6AB9;stroke-width:1;stroke-miterlimit:1;stroke-dasharray:11.9055,1,0,0;stroke-dashoffset:19;}
	.st1{fill:none;stroke:#1B6AB9;stroke-width:1;stroke-miterlimit:1;}
	.st2{font-family:'LXGWNeoXiHei,"思源黑体", "Noto Sans CJK SC", "Source Han Sans SC", "Source Han Sans CN", "Source Han Sans", "Noto Sans", "Noto Sans SC", "PingFang SC", "WenQuanYi Micro Hei", "Heiti SC", "STHeiti", "SimHei", sans-serif';}
	.st3{font-size:19.8425px;}
	.st4{fill:none;stroke:#F6AA51;stroke-width:1;stroke-miterlimit:1;}
	.st5{fill:none;stroke:#F6AA51;stroke-width:1;stroke-miterlimit:1;stroke-dasharray:1,1;stroke-dashoffset:3;}
	
		.st6{fill:none;stroke:#F6AA51;stroke-width:1;stroke-miterlimit:1;stroke-dasharray:11.9055,1,0,0;stroke-dashoffset:19;}
	.st7{fill:none;stroke:#C2080D;stroke-width:1;stroke-miterlimit:1;}
	
		.st8{fill:none;stroke:#C2080D;stroke-width:1;stroke-miterlimit:1;stroke-dasharray:11.9055,1,0,0;stroke-dashoffset:19;}
	.st9{fill:none;stroke:#B3704D;stroke-width:0.96;stroke-miterlimit:1.5;}
	.st10{fill:none;stroke:#B3704D;stroke-width:0.85;stroke-miterlimit:1.5;}
	.st11{fill:none;stroke:#B3704D;stroke-width:0.77;stroke-miterlimit:1.5;}
	.st12{fill:none;stroke:#000000;stroke-width:1;stroke-linecap:square;stroke-miterlimit:1.5;}
	.st13{fill-rule:evenodd;clip-rule:evenodd;}
	.st14{fill:none;stroke:#000000;stroke-width:1;stroke-linecap:square;stroke-miterlimit:1;}
	.st15{fill:none;stroke:#000000;stroke-width:1;stroke-miterlimit:1;}
	.st16{fill:none;stroke:#597DA6;stroke-width:1;stroke-miterlimit:1;}
	.st17{fill:none;stroke:#597DA6;stroke-width:0.96;stroke-miterlimit:1.5;}
	.st18{fill:none;stroke:#000000;stroke-width:1;stroke-linecap:square;stroke-miterlimit:1;}
	.st19{fill:none;stroke:#000000;stroke-width:1;stroke-miterlimit:1;}
</style>
<g transform="matrix(4,0,0,4,0,-18)">
	<g>
		<path class="st0" d="M115.6,198.8c-0.7-15.8-15.2-42.1-16.4-44.1c-4.9-8.5-10.5-6.8-11.9-6.9c-3.4-0.3-0.8-25.9-6-21.3
			c-2.6,2.3-0.2,20.3-5.7,21.8"/>
		<path class="st1" d="M75.6,148.2c-5.8,1.6-4.8-21-7.7-22.4c-4.3-2-1.4,18.1-5.8,21c-5.6,3.7-21.2-3.9-28.4,8
			c-9.4,15.7-11.7,49.9-16.9,46.1"/>
		<g transform="matrix(1,0,0,1,-78.9329,228.804)">
			<text transform="matrix(0.25 0 0 0.25 94.809 -23.4151)" class="st2 st3">A</text>
		</g>
		<g transform="matrix(1,0,0,1,120.506,225.25)">
			<text transform="matrix(0.25 0 0 0.25 -5.6955 -21.624)" class="st2 st3">A</text>
		</g>
		<g transform="matrix(0.367429,0.930052,-0.930052,0.367429,299.085,166.084)">
			<text transform="matrix(0.25 0 0 0.25 -72.2631 178.5617)" class="st2 st3">消退期</text>
		</g>
	</g>
	<g>
		<path class="st4" d="M24.8,201.1c5.4-2.3,6.7-15,9.3-24.9"/>
		<path class="st5" d="M34,176.2l3,2.2"/>
		<path class="st4" d="M37,178.5c2-3.4,2.9-7.8,3.9-12.1"/>
		<path class="st5" d="M40.9,166.4l3.4,1.2"/>
		<path class="st4" d="M44.3,167.5c3.8-1.6,5.9-40.3,10.7-41.4c1.8-0.4,4.9-0.1,4.9-0.1"/>
		<path class="st6" d="M59.9,126.1l8.7,73.3"/>
		<g transform="matrix(1,0,0,1,-130.299,219.742)">
			<text transform="matrix(0.25 0 0 0.25 154.2232 -14.4109)" class="st2 st3">C</text>
		</g>
		<g transform="matrix(0.106393,0.994324,-0.994324,0.106393,255.277,198.253)">
			<text transform="matrix(0.25 0 0 0.25 -51.5366 184.257)" class="st2 st3">消退期</text>
		</g>
		<g transform="matrix(1,0,0,1,-42.1446,219.742)">
			<text transform="matrix(0.25 0 0 0.25 109.7989 -14.4109)" class="st2 st3">C</text>
		</g>
	</g>
	<g>
		<path class="st7" d="M20.9,200.2c7.3,0.5,7.1-41,24.2-49c1.6-0.8,2.6,0.7,4,0.5c1.3-0.2,2.6-1.5,4-1.5c1.5,0,3.4,1.5,5,1.5
			c1.6,0,3.2-1.7,4.7-1.7c1.5,0,2.8,1.7,4.2,1.7c1.5,0,3-1.6,4.5-1.5c1.5,0.1,2.9,2,4.5,2c1.6,0,3.5-2,5-2c1.5,0.1,2.5,2.3,4,2.3
			s3.5-2.2,5-2.3c1.5-0.1,2.6,2,4.1,2c1.5,0,3.4-2.6,5-1.8"/>
		<path class="st8" d="M98.9,150.3c9.3,4.2,40.4,27.8,46.2,33.6"/>
		<g transform="matrix(1,0,0,1,-108.697,230.909)">
			<text transform="matrix(0.25 0 0 0.25 128.7236 -25.5201)" class="st2 st3">B</text>
		</g>
		<g transform="matrix(0.807293,0.590151,-0.590151,0.807293,227.549,137.224)">
			<text transform="matrix(0.25 0 0 0.25 -75.2435 84.6306)" class="st2 st3">消退期</text>
		</g>
		<g transform="matrix(1,0,0,1,142.219,195.243)">
			<text transform="matrix(0.25 0 0 0.25 2.2778 -7.5464)" class="st2 st3">B</text>
		</g>
	</g>
	<g>
		<g transform="matrix(1,0,0,1,-63.0254,275.004)">
			<text transform="matrix(0.25 0 0 0.25 69.0891 -100.3023)" class="st2 st3">兴奋期</text>
		</g>
		<g transform="matrix(1,0,0,1,-63.2235,244.503)">
			<text transform="matrix(0.25 0 0 0.25 69.2877 -95.6563)" class="st2 st3">平台期</text>
		</g>
		<g transform="matrix(1,0,0,1,-59.946,218.75)">
			<text transform="matrix(0.25 0 0 0.25 65.9007 -91.14)" class="st2 st3">高潮期</text>
		</g>
		<g>
			<g transform="matrix(1,0,0,1.08065,0,211.325)">
				<path class="st9" d="M13.5-88.5v6.7"/>
			</g>
			<g transform="matrix(1,0,0,1.3192,0,236.314)">
				<path class="st10" d="M13.5-81.6v12.4"/>
			</g>
			<g transform="matrix(1,0,0,1.32246,0,279.438)">
				<path class="st10" d="M13.5-98v15.3"/>
			</g>
			<g transform="matrix(1,0,0,1.54969,0,337.782)">
				<path class="st11" d="M13.5-104.6v15.8"/>
			</g>
		</g>
	</g>
</g>
<g transform="matrix(4,0,0,4,0,-18)">
	<g transform="matrix(1.12559,0,0,1.08337,-35.294,-22.1302)">
		<path class="st12" d="M153.2,146.7v14.2v-7.1l-4.6,0l8.4,0.1"/>
	</g>
	<g transform="matrix(1,0,0,1,9.10418,199.517)">
		<path class="st13" d="M128.2-82.6c-5.5,0-9.9,4.5-9.9,9.9c0,5.5,4.5,9.9,9.9,9.9c5.5,0,9.9-4.5,9.9-9.9
			C138.1-78.2,133.7-82.6,128.2-82.6z M128.2-81.7c4.9,0,8.9,4,8.9,8.9c0,4.9-4,8.9-8.9,8.9c-4.9,0-8.9-4-8.9-8.9
			C119.3-77.6,123.3-81.7,128.2-81.7z"/>
	</g>
</g>
<g transform="matrix(4,0,0,4,0,-18)">
	<g>
		<path class="st14" d="M84.8,35.1h-2.5v30.8h2.5"/>
		<path class="st15" d="M71.9,65.8c0-4.2,1-7.6,2.7-10.3c1.8-2.7,4.3-4.7,7.7-6.1"/>
		<g transform="matrix(1,0,0,1,-63.9641,130.608)">
			<text transform="matrix(0.25 0 0 0.25 128.7076 -58.1019)" class="st2 st3">不应期</text>
		</g>
	</g>
	<g transform="matrix(0.310224,0.950663,-0.950663,0.310224,305.808,5.73687)">
		<text transform="matrix(0.25 0 0 0.25 10.572 214.2707)" class="st2 st3">消退期</text>
	</g>
	<path class="st7" d="M24.8,107.8c8.4-2.4,7.5-26.6,19.8-47.4c7-11.8,28.3-3.5,29.8-9.9c2.9-12.4,4.5-20.9,7.9-20.8
		c4.9,0.2,3.5,13.1,6.9,18.4c8.3,12.6,25.7,34.2,29.8,62"/>
	<g transform="matrix(0.310072,0.950713,-0.950713,0.310072,368.789,-3.42608)">
		<text transform="matrix(0.25 0 0 0.25 5.144 245.8833)" class="st2 st3">消退期</text>
	</g>
	<path class="st0" d="M104,66.8c7.2,0.3,4.7-39.9,8.5-38.5c5.3,2,3,21.3,5.9,23.3c13.6,9.9,16.5,26.3,25.5,56.4"/>
	<g>
		<g transform="matrix(1,0,0,1,-63.0732,94.4323)">
			<text transform="matrix(0.25 0 0 0.25 69.0279 -9.8056)" class="st2 st3">兴奋期</text>
		</g>
		<g transform="matrix(1,0,0,1,-66.5926,60.7844)">
			<text transform="matrix(0.25 0 0 0.25 72.5473 -3.3848)" class="st2 st3">平台期</text>
		</g>
		<g transform="matrix(1,0,0,1,-63.4597,27.3011)">
			<text transform="matrix(0.25 0 0 0.25 69.5414 4.5493)" class="st2 st3">高潮期</text>
		</g>
		<g>
			<path class="st16" d="M13.5,11.3v14.3"/>
			<g transform="matrix(1,0,0,1.08065,0,50.8041)">
				<path class="st17" d="M13.5-14.6V0.7"/>
			</g>
			<g transform="matrix(1,0,0,1.08065,0,104.311)">
				<path class="st17" d="M13.5-40.8v17.5"/>
			</g>
			<g transform="matrix(1,0,0,1.08065,0,157.818)">
				<path class="st17" d="M13.5-65v19.8"/>
			</g>
		</g>
	</g>
</g>
<g transform="matrix(4,0,0,4,5.79603,-8.57588)">
	<path class="st18" d="M136.7,19.5l8.8-9.4v9.2v-9.2h-8.1"/>
	<g transform="matrix(1,0,0,1,-4.904,-0.134313)">
		<path class="st13" d="M134.5,16.8c-5.5,0-9.9,4.4-9.9,9.9s4.4,9.9,9.9,9.9c5.5,0,9.9-4.4,9.9-9.9S140,16.8,134.5,16.8z
			 M134.5,17.8c4.9,0,8.9,4,8.9,8.9s-4,8.9-8.9,8.9c-4.9,0-8.9-4-8.9-8.9S129.6,17.8,134.5,17.8z"/>
	</g>
</g>
<g transform="matrix(4,0,0,4,0,-18)">
	<path class="st19" d="M0,113.5l148.8,0.1"/>
</g>
</svg>
