<svg width="466" height="272" xmlns="http://www.w3.org/2000/svg" xmlns:xlink="http://www.w3.org/1999/xlink" overflow="hidden"><defs><clipPath id="clip0"><rect x="407" y="224" width="466" height="272"/></clipPath></defs><g clip-path="url(#clip0)" transform="translate(-407 -224)"><g><path d="M474.5 400.5 857.5 400.5M474.5 370.5 857.5 370.5M474.5 340.5 857.5 340.5M474.5 310.5 857.5 310.5M474.5 280.5 857.5 280.5" stroke="#D9D9D9" stroke-linejoin="round" stroke-miterlimit="10" fill="none"/></g><g><path d="M506 429 535 429 535 431 506 431ZM634 418 662 418 662 431 634 431ZM762 406 790 406 790 431 762 431Z" fill="#4472C4"/></g><g><path d="M543 388 571 388 571 431 543 431ZM670 352 699 352 699 431 670 431ZM798 310 827 310 827 431 798 431Z" fill="#8FAADC"/></g><g><path d="M474.5 430.5 857.5 430.5" stroke="#D9D9D9" stroke-linejoin="round" stroke-miterlimit="10" fill="none" fill-rule="evenodd"/></g><g><text fill="#404040" font-family="LXGW Neo XiHei,LXGW Neo XiHei_MSFontService,sans-serif" font-weight="400" font-size="12" transform="translate(511.316 417)">0.3</text></g><g><text fill="#404040" font-family="LXGW Neo XiHei,LXGW Neo XiHei_MSFontService,sans-serif" font-weight="400" font-size="12" transform="translate(644.376 407)">2</text></g><g><text fill="#404040" font-family="LXGW Neo XiHei,LXGW Neo XiHei_MSFontService,sans-serif" font-weight="400" font-size="12" transform="translate(772.073 395)">4</text></g><g><text fill="#404040" font-family="LXGW Neo XiHei,LXGW Neo XiHei_MSFontService,sans-serif" font-weight="400" font-size="12" transform="translate(553.041 377)">7</text></g><g><text fill="#404040" font-family="LXGW Neo XiHei,LXGW Neo XiHei_MSFontService,sans-serif" font-weight="400" font-size="12" transform="translate(676.958 341)">13</text></g><g><text fill="#404040" font-family="LXGW Neo XiHei,LXGW Neo XiHei_MSFontService,sans-serif" font-weight="400" font-size="12" transform="translate(804.655 299)">20</text></g><g><text fill="#595959" font-family="LXGW Neo XiHei,LXGW Neo XiHei_MSFontService,sans-serif" font-weight="400" font-size="12" transform="translate(456.398 434)">0</text></g><g><text fill="#595959" font-family="LXGW Neo XiHei,LXGW Neo XiHei_MSFontService,sans-serif" font-weight="400" font-size="12" transform="translate(456.398 404)">5</text></g><g><text fill="#595959" font-family="LXGW Neo XiHei,LXGW Neo XiHei_MSFontService,sans-serif" font-weight="400" font-size="12" transform="translate(448.838 374)">10</text></g><g><text fill="#595959" font-family="LXGW Neo XiHei,LXGW Neo XiHei_MSFontService,sans-serif" font-weight="400" font-size="12" transform="translate(448.838 344)">15</text></g><g><text fill="#595959" font-family="LXGW Neo XiHei,LXGW Neo XiHei_MSFontService,sans-serif" font-weight="400" font-size="12" transform="translate(448.838 314)">20</text></g><g><text fill="#595959" font-family="LXGW Neo XiHei,LXGW Neo XiHei_MSFontService,sans-serif" font-weight="400" font-size="12" transform="translate(448.838 284)">25</text></g><g><text fill="#595959" font-family="LXGW Neo XiHei,LXGW Neo XiHei_MSFontService,sans-serif" font-weight="400" font-size="12" transform="translate(478.641 451)">口服避孕药（非紧急）</text></g><g><text fill="#595959" font-family="LXGW Neo XiHei,LXGW Neo XiHei_MSFontService,sans-serif" font-weight="400" font-size="12" transform="translate(636.337 451)">男用避孕套</text></g><g><text fill="#595959" font-family="LXGW Neo XiHei,LXGW Neo XiHei_MSFontService,sans-serif" font-weight="400" font-size="12" transform="translate(770.034 451)">体外射精</text></g><g><text fill="#595959" font-family="LXGW Neo XiHei,LXGW Neo XiHei_MSFontService,sans-serif" font-weight="400" font-size="13" transform="matrix(6.12323e-17 -1 1 6.12323e-17 439.118 431)">每年每百名妇女怀孕次数</text></g><g><text fill="#595959" font-family="LXGW Neo XiHei,LXGW Neo XiHei_MSFontService,sans-serif" font-weight="400" font-size="19" transform="translate(584 255)">避孕</text></g><g><text fill="#595959" font-family="LXGW Neo XiHei,LXGW Neo XiHei_MSFontService,sans-serif" font-weight="400" font-size="19" transform="translate(621.333 255)">失败</text></g><g><text fill="#595959" font-family="LXGW Neo XiHei,LXGW Neo XiHei_MSFontService,sans-serif" font-weight="400" font-size="19" transform="translate(658.667 255)">比较</text></g><g><rect x="566" y="473" width="7" height="6" fill="#4472C4"/></g><g><text fill="#595959" font-family="LXGW Neo XiHei,LXGW Neo XiHei_MSFontService,sans-serif" font-weight="400" font-size="12" transform="translate(575.639 479)">坚持正确使用</text></g><g><rect x="661" y="473" width="7" height="6" fill="#8FAADC"/></g><g><text fill="#595959" font-family="LXGW Neo XiHei,LXGW Neo XiHei_MSFontService,sans-serif" font-weight="400" font-size="12" transform="translate(670.266 479)">一般使用</text></g></g></svg>